<?xml version="1.0" encoding="UTF-8" standalone="no"?>
<svg
   xmlns:dc="http://purl.org/dc/elements/1.1/"
   xmlns:cc="http://creativecommons.org/ns#"
   xmlns:rdf="http://www.w3.org/1999/02/22-rdf-syntax-ns#"
   xmlns:svg="http://www.w3.org/2000/svg"
   xmlns="http://www.w3.org/2000/svg"
   xmlns:sodipodi="http://sodipodi.sourceforge.net/DTD/sodipodi-0.dtd"
   xmlns:inkscape="http://www.inkscape.org/namespaces/inkscape"
   sodipodi:docname="Car_Booking.svg"
   inkscape:version="1.0 (4035a4fb49, 2020-05-01)"
   id="svg8559"
   version="1.1"
   viewBox="0 0 263.86 199.85131"
   height="755.34351"
   width="997.26617">
  <defs
     id="defs8553" />
  <sodipodi:namedview
     inkscape:window-maximized="1"
     inkscape:window-y="-9"
     inkscape:window-x="-9"
     inkscape:window-height="1001"
     inkscape:window-width="1920"
     fit-margin-bottom="0"
     fit-margin-right="0"
     fit-margin-left="0"
     fit-margin-top="0"
     inkscape:pagecheckerboard="true"
     units="px"
     showgrid="false"
     inkscape:document-rotation="0"
     inkscape:current-layer="layer1"
     inkscape:document-units="px"
     inkscape:cy="351.97042"
     inkscape:cx="549.90231"
     inkscape:zoom="0.48344881"
     inkscape:pageshadow="2"
     inkscape:pageopacity="0.0"
     borderopacity="1.0"
     bordercolor="#666666"
     pagecolor="#ffffff"
     id="base" />
  <metadata
     id="metadata8556">
    <rdf:RDF>
      <cc:Work
         rdf:about="">
        <dc:format>image/svg+xml</dc:format>
        <dc:type
           rdf:resource="http://purl.org/dc/dcmitype/StillImage" />
        <dc:title></dc:title>
      </cc:Work>
    </rdf:RDF>
  </metadata>
  <g
     transform="translate(-79.864039,-102.85583)"
     id="layer1"
     inkscape:groupmode="layer"
     inkscape:label="Layer 1">
    <path
       style="stroke-width:10.9942"
       d="m 156.82307,220.25109 c 0,-9.10338 -7.38808,-16.49146 -16.49104,-16.49146 -9.10338,0 -16.49146,7.38808 -16.49146,16.49146 0,9.10296 7.38808,16.49104 16.49146,16.49104 9.10296,0 16.49104,-7.38808 16.49104,-16.49104 z m 98.9475,10.99403 c 0,-3.03335 -2.46408,-5.49702 -5.49701,-5.49702 h -76.95903 c -3.03335,0 -5.49702,2.46408 -5.49702,5.49702 0,3.03335 2.46408,5.49701 5.49702,5.49701 h 76.95903 c 3.03335,0 5.49701,-2.46408 5.49701,-5.49701 z m 43.97694,-10.99403 c 0,-9.10338 -7.38808,-16.49146 -16.49146,-16.49146 -9.10296,0 -16.49104,7.38808 -16.49104,16.49146 0,9.10296 7.38808,16.49104 16.49104,16.49104 9.10338,0 16.49146,-7.38808 16.49146,-16.49104 z M 109.57011,148.78908 H 85.361059 c -3.03335,0 -5.49702,2.46407 -5.49702,5.49701 v 5.61793 c 0,8.71819 10.18043,10.87311 17.76671,10.87311 z m 212.38527,34.82951 c -8.36623,-15.53491 -18.67879,-34.85154 -29.50827,-52.90413 -8.64131,-14.42421 -15.06204,-21.30659 -30.24501,-24.04409 -15.3367,-2.74664 -29.47503,-3.81454 -50.40806,-3.81454 -20.93303,0 -35.07136,1.0679 -50.40848,3.81454 -15.18296,2.72586 -21.60327,9.61988 -30.24459,24.04409 -10.78543,17.99733 -21.03192,37.18223 -29.50869,52.90413 -7.552621,13.99539 -10.774211,26.51773 -10.774211,41.84363 0,14.49028 4.61776,26.55096 10.994441,41.96454 v 24.28634 c 0,6.06878 4.92525,10.99403 10.99403,10.99403 h 16.49104 c 6.06878,0 10.99445,-4.92525 10.99445,-10.99403 v -10.99403 h 142.92402 v 10.99403 c 0,6.06878 4.92525,10.99403 10.99403,10.99403 h 16.49146 c 6.06878,0 10.99403,-4.92525 10.99403,-10.99403 v -24.28634 c 6.37668,-15.4248 10.99444,-27.47426 10.99444,-41.96454 0,-15.3259 -3.22034,-27.84824 -10.77463,-41.84363 z m -171.95943,-41.6022 c 7.36606,-12.2805 9.36682,-12.63204 15.28186,-13.6987 13.94053,-2.49732 26.99059,-3.47381 46.51623,-3.47381 19.52564,0 32.5757,0.96818 46.51623,3.47381 5.91504,1.06791 7.9158,1.41695 15.28186,13.6987 4.48562,7.48698 8.90517,15.25984 13.13815,22.87895 -16.00737,2.41837 -44.19676,5.88179 -74.93624,5.88179 -33.51022,0 -60.65497,-3.69404 -74.81532,-6.10161 4.19974,-7.54224 8.56444,-15.23781 13.01723,-22.65913 z M 277.47316,258.7306 H 146.11492 c -18.3713,0 -33.26838,-14.88627 -33.26838,-33.26838 0,-18.04138 5.56309,-26.61703 13.01723,-40.43665 11.44488,2.25216 43.61378,7.74003 85.93027,7.74003 38.2705,0 72.13268,-5.00253 86.12806,-7.38808 7.3004,13.53374 12.81944,22.09817 12.81944,40.0847 0,18.38211 -14.89708,33.26838 -33.26838,33.26838 z m 60.75387,-109.94152 c 3.03335,0 5.49701,2.46407 5.49701,5.49701 v 5.61793 c 0,8.71819 -10.18084,10.87311 -17.76671,10.87311 l -11.93977,-21.98805 z"
       id="path11312" />
    <path
       transform="scale(0.26458333)"
       id="path11323"
       d="m 722.22215,643.08263 c -43.52884,-2.12011 -91.55872,-6.21078 -135.29329,-11.52282 -30.50829,-3.70556 -65.91546,-9.04564 -66.97022,-10.1004 -1.21726,-1.21726 45.83958,-82.57788 59.72101,-103.25677 9.80423,-14.60519 22.65606,-26.95964 30.34675,-29.17232 18.54944,-5.33684 71.38332,-12.12717 113.65838,-14.60763 32.03821,-1.87982 121.53795,-1.87982 153.57616,0 42.27505,2.48046 95.10894,9.27079 113.65838,14.60763 7.6907,2.21268 20.54248,14.56713 30.34678,29.17232 13.1145,19.53643 60.0317,100.42373 60.0317,103.49726 0,3.7871 -125.84574,17.1748 -195.9924,20.85004 -25.09951,1.31505 -139.35789,1.68827 -163.08325,0.53269 z"
       style="opacity:0.998;fill:#ffffff;fill-opacity:1;stroke-width:7.31315;stroke-linecap:round;stroke-linejoin:round" />
    <path
       transform="scale(0.26458333)"
       id="path11325"
       d="m 535.0055,975.93612 c -54.05363,-7.8908 -97.48153,-50.51423 -106.09356,-104.12825 -2.50796,-15.61319 -1.00992,-50.06345 3.00254,-69.04932 5.54148,-26.22078 11.9205,-42.14687 32.2636,-80.55041 l 11.67777,-22.04521 27.38088,4.71971 c 135.14989,23.29609 286.58862,29.81718 436.9173,18.81407 49.41727,-3.61704 125.76697,-12.54376 172.94637,-20.22071 8.8053,-1.43279 12.4169,-1.52389 13.3912,-0.33778 2.931,3.56801 28.0214,53.53191 32.1964,64.11453 12.8937,32.68218 18.3156,78.8696 12.6947,108.14298 -9.0984,47.38454 -43.9424,84.42538 -92.2788,98.09702 l -11.7011,3.30957 -261.81074,0.20744 c -143.99593,0.11409 -265.75988,-0.36905 -270.58656,-1.07364 z m 10.18727,-82.54264 c 18.48775,-4.81544 33.87506,-17.30604 42.14959,-34.21479 4.46895,-9.13217 4.70571,-10.46225 4.70571,-26.43622 0,-15.89855 -0.25716,-17.36315 -4.69301,-26.72785 -6.16522,-13.01565 -17.72527,-24.5757 -30.74092,-30.74092 -9.28348,-4.39737 -10.92112,-4.69301 -25.99653,-4.69301 -15.068,0 -16.71621,0.29714 -25.97416,4.68254 -25.87853,12.25842 -41.06217,39.88392 -36.41659,66.25729 6.59115,37.41855 41.67601,61.06482 76.96591,51.87296 z m 410.29463,-0.46589 c 6.90608,-3.70377 10.44739,-8.90671 11.31771,-16.62807 0.86605,-7.68372 -1.73025,-13.61374 -8.42789,-19.24943 l -4.55264,-3.8308 H 800.47286 647.12114 l -4.55264,3.8308 c -6.69765,5.63569 -9.29395,11.56571 -8.4279,19.24943 0.87033,7.72136 4.41163,12.9243 11.31772,16.62807 4.82021,2.58511 11.85352,2.70797 155.01454,2.70797 143.16102,0 150.19432,-0.12286 155.01454,-2.70797 z m 127.5667,1.07774 c 25.7552,-5.41708 44.9463,-25.69796 49.6648,-52.48481 4.6455,-26.37337 -10.5381,-53.99887 -36.4166,-66.25729 -9.258,-4.3854 -10.9062,-4.68254 -25.9742,-4.68254 -15.0754,0 -16.7131,0.29564 -25.9965,4.69301 -13.0157,6.16522 -24.5757,17.72527 -30.7409,30.74092 -4.4359,9.3647 -4.6931,10.8293 -4.6931,26.72785 0,15.97397 0.2368,17.30405 4.7057,26.43622 12.8286,26.21465 41.6593,40.67204 69.4508,34.82664 z"
       style="opacity:0.998;fill:#fff830;fill-opacity:1;stroke-width:7.31315;stroke-linecap:round;stroke-linejoin:round" />
    <path
       transform="scale(0.26458333)"
       id="path11327"
       d="m 1055.3371,891.91296 c -4.2228,-1.1371 -10.4458,-3.47958 -13.8289,-5.2055 -8.952,-4.56697 -21.9174,-18.26178 -26.8581,-28.36896 -3.9886,-8.15964 -4.2898,-9.95888 -4.2898,-25.62678 0,-16.03949 0.2278,-17.31386 4.7314,-26.46197 6.063,-12.3157 17.2492,-23.49018 29.5315,-29.50072 9.0551,-4.43121 10.5545,-4.70571 25.7049,-4.70571 15.0754,0 16.7131,0.29564 25.9965,4.69301 18.6226,8.82108 31.1697,25.41281 34.8983,46.14782 7.5816,42.16168 -34.2728,80.2342 -75.8858,69.02881 z"
       style="opacity:0.998;fill:#ffffff;fill-opacity:1;stroke-width:7.31315;stroke-linecap:round;stroke-linejoin:round" />
    <path
       transform="scale(0.26458333)"
       id="path11331"
       d="m 515.99131,892.2391 c -30.69598,-7.85665 -51.67296,-39.30046 -46.26851,-69.35495 3.72861,-20.73501 16.27575,-37.32674 34.89827,-46.14782 9.28348,-4.39737 10.92112,-4.69301 25.99654,-4.69301 15.15041,0 16.64985,0.2745 25.7049,4.70571 12.23226,5.98603 23.47103,17.19022 29.47335,29.38267 3.9938,8.11256 4.75941,11.46052 5.26517,23.02441 0.48332,11.05061 0.0179,15.23437 -2.53866,22.81957 -8.03292,23.83349 -29.6145,40.14898 -54.9795,41.56404 -5.63113,0.31415 -13.52933,-0.27113 -17.55156,-1.30062 z"
       style="opacity:0.998;fill:#ffffff;fill-opacity:1;stroke-width:7.31315;stroke-linecap:round;stroke-linejoin:round" />
  </g>
</svg>
