<?xml version="1.0" encoding="UTF-8" standalone="no"?>
<svg
   xmlns:dc="http://purl.org/dc/elements/1.1/"
   xmlns:cc="http://creativecommons.org/ns#"
   xmlns:rdf="http://www.w3.org/1999/02/22-rdf-syntax-ns#"
   xmlns:svg="http://www.w3.org/2000/svg"
   xmlns="http://www.w3.org/2000/svg"
   xmlns:sodipodi="http://sodipodi.sourceforge.net/DTD/sodipodi-0.dtd"
   xmlns:inkscape="http://www.inkscape.org/namespaces/inkscape"
   sodipodi:docname="Cosmetic.svg"
   inkscape:version="1.0 (4035a4fb49, 2020-05-01)"
   id="svg18072"
   version="1.1"
   viewBox="0 0 186.80334 294.95261"
   height="1114.7815"
   width="706.02838">
  <defs
     id="defs18066" />
  <sodipodi:namedview
     inkscape:window-maximized="1"
     inkscape:window-y="-9"
     inkscape:window-x="-9"
     inkscape:window-height="1001"
     inkscape:window-width="1920"
     inkscape:pagecheckerboard="true"
     units="px"
     showgrid="false"
     inkscape:document-rotation="0"
     inkscape:current-layer="layer1"
     inkscape:document-units="px"
     inkscape:cy="531.2538"
     inkscape:cx="638.00351"
     inkscape:zoom="0.48344881"
     inkscape:pageshadow="2"
     inkscape:pageopacity="0.0"
     borderopacity="1.0"
     bordercolor="#666666"
     pagecolor="#ffffff"
     id="base" />
  <metadata
     id="metadata18069">
    <rdf:RDF>
      <cc:Work
         rdf:about="">
        <dc:format>image/svg+xml</dc:format>
        <dc:type
           rdf:resource="http://purl.org/dc/dcmitype/StillImage" />
        <dc:title></dc:title>
      </cc:Work>
    </rdf:RDF>
  </metadata>
  <g
     transform="translate(-102.96873,-72.719615)"
     id="layer1"
     inkscape:groupmode="layer"
     inkscape:label="Layer 1">
    <g
       transform="matrix(4.9158766,0,0,4.9158766,39.062356,62.887862)"
       id="outline">
      <path
         d="M 33,61 V 35 A 1,1 0 0 0 32.555,34.168 L 30,32.465 V 19 A 1,1 0 0 0 29,18 H 17 a 1,1 0 0 0 -1,1 v 13.465 l -2.555,1.7 A 1,1 0 0 0 13,35 v 26 a 1,1 0 0 0 1,1 h 18 a 1,1 0 0 0 1,-1 z M 28,20 V 32 H 26 V 20 Z m -10,0 h 6 V 32 H 18 Z M 17.3,34 H 28.7 L 31,35.535 V 58.88 A 14.113,14.113 0 0 0 23,56 14.113,14.113 0 0 0 15,58.88 V 35.535 Z M 29.075,60 H 16.925 A 11.6,11.6 0 0 1 23,58 a 11.6,11.6 0 0 1 6.075,2 z"
         id="path20470" />
      <path
         d="m 18,50 h 10 a 1,1 0 0 0 1,-1 V 37 A 1,1 0 0 0 28,36 H 18 a 1,1 0 0 0 -1,1 v 12 a 1,1 0 0 0 1,1 z m 1,-12 h 8 v 10 h -8 z"
         id="path20472" />
      <path
         d="M 50,18 H 49 V 3 A 1,1 0 0 0 48,2 H 38 a 1,1 0 0 0 -1,1 v 15 h -1 a 1,1 0 0 0 -1,1 v 41 a 2,2 0 0 0 2,2 h 12 a 2,2 0 0 0 2,-2 V 19 A 1,1 0 0 0 50,18 Z M 47,4 V 18 H 45 V 4 Z m -8,0 h 4 V 18 H 39 Z M 37,20 H 49 V 56 H 37 Z m 0,40 v -2 h 12 v 2 z"
         id="path20474" />
      <path
         d="m 46,22 h -6 a 1,1 0 0 0 -1,1 v 16 a 1,1 0 0 0 1,1 h 6 a 1,1 0 0 0 1,-1 V 23 A 1,1 0 0 0 46,22 Z M 45,38 H 41 V 24 h 4 z"
         id="path20476" />
      <path
         d="m 39,52 h 2 v 2 h -2 z"
         id="path20478" />
      <path
         d="m 45,52 h -2 v 2 h 3 a 1,1 0 0 0 1,-1 v -5 h -2 z"
         id="path20480" />
    </g>
    <path
       transform="scale(0.26458333)"
       id="path20498"
       d="M 426.28574,1114.586 V 899.27333 l 21.64999,-14.52557 21.65,-14.52556 H 575.1639 680.74206 l 20.66755,13.76053 20.66752,13.76054 v 215.65613 215.6561 l -13.70229,-9.1884 c -41.63064,-27.9164 -97.42077,-44.0645 -143.46607,-41.5254 -44.77157,2.4689 -88.56674,18.2057 -132.93474,47.7669 l -5.68829,3.79 z m 255.63653,46.6582 4.99085,-5.8037 V 1036.7341 918.02773 l -4.99087,-5.80364 -4.99087,-5.80364 -100.27476,-0.57408 -100.27477,-0.57408 -6.43182,5.41202 -6.43181,5.41201 v 119.32718 c 0,129.3095 -0.28289,125.9743 11.0808,130.6378 2.438,1.0005 48.96016,1.6318 103.38257,1.4029 l 98.94983,-0.4164 z"
       style="opacity:0.998;fill:#ff1621;fill-opacity:1;stroke-width:10.3424;stroke-linecap:round;stroke-linejoin:round" />
    <path
       transform="scale(0.26458333)"
       id="path20500"
       d="m 500.7507,1036.7341 v -92.04693 h 73.43074 73.43073 v 92.04693 92.047 H 574.18144 500.7507 Z"
       style="opacity:0.998;fill:#fefefe;fill-opacity:1;stroke-width:10.3424;stroke-linecap:round;stroke-linejoin:round" />
    <path
       transform="scale(0.26458333)"
       id="path20502"
       d="m 467.65516,1349.9875 c 7.35465,-5.0376 35.13636,-18.2581 46.63868,-22.194 36.85266,-12.6104 74.10254,-13.8308 109.53091,-3.5883 18.46388,5.338 40.89095,14.9564 54.81449,23.5086 l 7.23965,4.4468 -110.66322,-0.024 c -76.38564,-0.016 -109.70216,-0.6822 -107.56051,-2.1491 z"
       style="opacity:0.998;fill:#e0e0e0;fill-opacity:1;stroke-width:10.3424;stroke-linecap:round;stroke-linejoin:round" />
    <path
       transform="scale(0.26458333)"
       id="path20504"
       d="M 482.13446,720.25803 V 609.59482 h 54.81449 54.81449 v 110.66321 110.66322 h -54.81449 -54.81449 z"
       style="opacity:0.998;fill:#fefefe;fill-opacity:1;stroke-width:10.3424;stroke-linecap:round;stroke-linejoin:round" />
    <path
       transform="scale(0.26458333)"
       id="path20506"
       d="M 631.0644,720.25803 V 609.59482 h 17.582 17.58201 v 110.66321 110.66322 h -17.58201 -17.582 z"
       style="opacity:0.998;fill:#fefefe;fill-opacity:1;stroke-width:10.3424;stroke-linecap:round;stroke-linejoin:round" />
    <path
       transform="scale(0.26458333)"
       id="path20508"
       d="M 835.84306,943.65293 V 609.59482 H 946.50627 1057.1695 V 943.65293 1277.7111 H 946.50627 835.84306 Z m 74.46496,279.24367 v -19.6505 h -19.65048 -19.65047 v 19.6505 19.6504 h 19.65047 19.65048 z m 99.04078,17.3577 c 11.7508,-4.0963 12.6567,-8.5883 12.6567,-62.7614 v -48.7118 h -19.6505 -19.65048 v 37.2325 37.2325 h -18.61624 -18.61625 v 19.6505 19.6504 h 28.64994 c 15.75746,0 31.60953,-1.0317 35.22683,-2.2927 z m 6.9138,-264.07972 4.7086,-4.71086 0.5563,-154.55566 c 0.3952,-109.80887 -0.1092,-156.16219 -1.7422,-160.10461 -4.7366,-11.43517 -10.3331,-12.28462 -76.53844,-11.61709 l -60.17378,0.60671 -6.03301,6.75516 -6.033,6.75517 0.0733,153.55136 c 0.059,123.48154 0.60987,154.51945 2.81327,158.49486 5.67148,10.23256 8.07516,10.5533 75.14362,10.02669 61.98664,-0.48673 62.55654,-0.53083 67.22534,-5.20173 z"
       style="opacity:0.998;fill:#f6ff12;fill-opacity:1;stroke-width:10.3424;stroke-linecap:round;stroke-linejoin:round" />
    <path
       transform="scale(0.26458333)"
       id="path20510"
       d="m 835.84306,1334.594 v -17.582 h 110.66321 110.66323 v 17.582 17.582 H 946.50627 835.84306 Z"
       style="opacity:0.998;fill:#12ff1f;fill-opacity:1;stroke-width:10.3424;stroke-linecap:round;stroke-linejoin:round" />
    <path
       transform="scale(0.26458333)"
       id="path20512"
       d="M 873.07554,442.04864 V 313.80342 h 36.19825 36.19824 v 128.24522 128.24522 h -36.19824 -36.19825 z"
       style="opacity:0.998;fill:#fefefe;fill-opacity:1;stroke-width:10.3424;stroke-linecap:round;stroke-linejoin:round" />
    <path
       transform="scale(0.26458333)"
       id="path20514"
       d="M 984.77299,442.04864 V 313.80342 h 17.58201 17.582 v 128.24522 128.24522 h -17.582 -17.58201 z"
       style="opacity:0.998;fill:#ffffff;fill-opacity:1;stroke-width:10.3424;stroke-linecap:round;stroke-linejoin:round" />
    <path
       transform="scale(0.26458333)"
       id="path20516"
       d="M 910.30802,813.33924 V 684.05979 h 36.19825 36.19825 V 813.33924 942.6187 h -36.19825 -36.19825 z"
       style="opacity:0.998;fill:#fefefe;fill-opacity:1;stroke-width:10.3424;stroke-linecap:round;stroke-linejoin:round" />
  </g>
</svg>
