<?xml version="1.0" encoding="UTF-8" standalone="no"?>
<svg
   xmlns:dc="http://purl.org/dc/elements/1.1/"
   xmlns:cc="http://creativecommons.org/ns#"
   xmlns:rdf="http://www.w3.org/1999/02/22-rdf-syntax-ns#"
   xmlns:svg="http://www.w3.org/2000/svg"
   xmlns="http://www.w3.org/2000/svg"
   xmlns:sodipodi="http://sodipodi.sourceforge.net/DTD/sodipodi-0.dtd"
   xmlns:inkscape="http://www.inkscape.org/namespaces/inkscape"
   sodipodi:docname="Cricket.svg"
   inkscape:version="1.0 (4035a4fb49, 2020-05-01)"
   id="svg20524"
   version="1.1"
   viewBox="0 0 300.30434 300.34687"
   height="1135.1692"
   width="1135.0085">
  <defs
     id="defs20518" />
  <sodipodi:namedview
     inkscape:window-maximized="1"
     inkscape:window-y="-9"
     inkscape:window-x="-9"
     inkscape:window-height="1001"
     inkscape:window-width="1920"
     fit-margin-bottom="0"
     fit-margin-right="0"
     fit-margin-left="0"
     fit-margin-top="0"
     inkscape:pagecheckerboard="true"
     units="px"
     showgrid="false"
     inkscape:document-rotation="0"
     inkscape:current-layer="layer1"
     inkscape:document-units="px"
     inkscape:cy="593.92874"
     inkscape:cx="411.2244"
     inkscape:zoom="0.34184994"
     inkscape:pageshadow="2"
     inkscape:pageopacity="0.0"
     borderopacity="1.0"
     bordercolor="#666666"
     pagecolor="#ffffff"
     id="base" />
  <metadata
     id="metadata20521">
    <rdf:RDF>
      <cc:Work
         rdf:about="">
        <dc:format>image/svg+xml</dc:format>
        <dc:type
           rdf:resource="http://purl.org/dc/dcmitype/StillImage" />
        <dc:title></dc:title>
      </cc:Work>
    </rdf:RDF>
  </metadata>
  <g
     transform="translate(-38.310752,-56.876571)"
     id="layer1"
     inkscape:groupmode="layer"
     inkscape:label="Layer 1">
    <path
       style="stroke-width:5.00578"
       id="Shape"
       d="m 325.09158,84.908919 c -1.87784,-1.879944 -4.42602,-2.936271 -7.08318,-2.936271 -2.65716,0 -5.20532,1.056327 -7.08316,2.936271 l -43.45012,43.850581 -7.7089,-3.85445 c -3.71953,-1.8217 -8.1768,-1.16506 -11.21295,1.65191 V 86.911227 c 0,-5.529221 -4.48232,-10.01156 -10.01154,-10.01156 V 66.88813 c 0,-5.529242 -4.48231,-10.011559 -10.01156,-10.011559 h -90.10393 c -5.52922,0 -10.01154,4.482317 -10.01154,10.011559 v 10.011537 c -5.52922,0 -10.01156,4.482339 -10.01156,10.01156 v 42.549083 c -8.43939,-10.82664 -21.315456,-17.26468 -35.040411,-17.52021 -24.615205,0.63146 -44.420509,20.43675 -45.051977,45.05197 0.631468,24.61521 20.436772,44.42049 45.051977,45.05197 13.724955,-0.25554 26.601021,-6.69356 35.040411,-17.5202 v 71.73274 l -52.060058,51.90989 c -3.815826,3.89292 -3.815826,10.12324 0,14.01615 l 32.287255,31.93686 c 1.877833,1.87993 4.426023,2.93625 7.083183,2.93625 2.65716,0 5.20532,-1.05632 7.08316,-2.93625 l 5.60646,-5.60648 c 0.65745,5.01571 4.95312,8.75296 10.01156,8.71006 h 10.01154 c 5.52924,0 10.01156,-4.48234 10.01156,-10.01156 v -28.63303 l 20.02309,-20.0231 v 48.65613 c 0,5.52922 4.48232,10.01156 10.01155,10.01156 h 10.01154 c 5.52922,0 10.01156,-4.48234 10.01156,-10.01156 v -78.69076 l 20.0231,-20.0231 v 98.71386 c 0,5.52922 4.48231,10.01156 10.01153,10.01156 h 10.01156 c 5.52922,0 10.01154,-4.48234 10.01154,-10.01156 V 218.46298 l 45.70274,-45.65265 c 3.04239,-3.05378 3.78854,-7.71212 1.85214,-11.56335 l -3.85444,-7.7089 43.45012,-43.45012 c 3.88172,-3.90489 3.88172,-10.21141 0,-14.116276 z M 238.54173,347.2115 H 228.53017 V 238.48608 l 10.01156,-10.01156 z M 178.47244,196.33745 V 86.911227 h 10.01154 v 99.464733 z m 20.0231,-104.420444 h 20.0231 v 64.474354 l -20.0231,20.02312 z m 40.04619,-5.005779 v 49.507103 l -10.01156,10.01156 V 86.911227 Z m -10.01156,-10.01156 c -3.5552,0.02217 -6.83235,1.926792 -8.60991,5.00578 h -22.82634 c -1.77758,-3.078988 -5.05471,-4.984318 -8.60994,-5.00578 V 66.88813 h 40.04619 z M 138.42624,66.88813 h 40.0462 v 10.011537 c -3.55521,0.02217 -6.83234,1.926792 -8.60992,5.00578 h -22.82634 c -1.77758,-3.078988 -5.05472,-4.984318 -8.60994,-5.00578 z m 0,20.023097 V 236.28354 L 128.4147,246.29508 V 86.911227 Z M 55.580674,177.71598 c -1.613623,-2.0941 -2.990267,-4.36053 -4.104736,-6.7578 l 45.852902,-45.8529 c 2.397266,1.11448 4.6637,2.49111 6.7578,4.10474 z m 55.564086,-41.44781 c 1.60208,2.08414 2.97805,4.33268 4.10474,6.70773 l -45.902945,45.90295 c -2.375051,-1.1267 -4.623592,-2.50267 -6.707734,-4.10474 z M 86.16595,121.95164 48.3223,159.79529 c -0.653958,-10.22324 3.122638,-20.23358 10.366337,-27.47731 7.243723,-7.2437 17.254063,-11.0203 27.477313,-10.36634 z m -5.656528,70.08085 37.893718,-37.89372 c 0.67057,10.24094 -3.10595,20.27389 -10.36288,27.53083 -7.25694,7.25694 -17.289895,11.03346 -27.530838,10.36289 z M 148.4378,91.917006 h 20.02309 V 206.29895 l -20.02309,20.0231 z M 138.42624,347.2115 H 128.4147 v -8.60994 l 10.01154,-10.01154 z m 50.05774,0 h -10.01154 v -58.66767 l 10.01154,-10.01156 z m -82.79549,0 c -0.30036,-0.50058 4.2549,4.20486 -32.287258,-31.93684 C 184.67959,204.24658 -91.088525,479.3139 255.31107,133.86538 l 10.01156,5.00578 16.51906,16.51906 5.00578,10.01154 C 98.930691,353.96929 106.18905,347.2115 105.68849,347.2115 Z m 180.50823,-201.73271 -10.66231,-10.66231 42.44898,-42.899474 10.66229,11.062744 z" />
    <path
       transform="scale(0.26458334)"
       id="path21123"
       d="m 184.60328,583.65028 c 6.81714,-62.85016 52.60482,-110.70316 114.9531,-120.13823 11.78934,-1.78406 21.94146,-2.73745 22.56028,-2.11863 0.61881,0.61881 -30.53259,32.65795 -69.22534,71.19808 l -70.35045,70.07297 z"
       style="opacity:0.998;fill:#ff0000;fill-opacity:1;stroke-width:14.6263;stroke-linecap:round;stroke-linejoin:round" />
    <path
       transform="scale(0.26458334)"
       id="path21125"
       d="m 203.49503,658.97573 c -3.18812,-5.22891 -5.80151,-10.17365 -5.80752,-10.98832 -0.006,-0.81468 38.68999,-40.16548 85.99113,-87.44623 l 86.00206,-85.965 10.82521,6.69035 10.82522,6.69035 -90.22775,90.26297 c -49.62526,49.64463 -90.58415,90.26297 -91.01975,90.26297 -0.43561,0 -3.40047,-4.27819 -6.5886,-9.50709 z"
       style="opacity:0.998;fill:#ff0000;fill-opacity:1;stroke-width:14.6263;stroke-linecap:round;stroke-linejoin:round" />
    <path
       transform="scale(0.26458334)"
       id="path21129"
       d="m 251.06257,706.15183 c -5.2289,-3.33612 -9.50709,-6.93178 -9.50709,-7.99034 0,-1.05857 40.11987,-42.02837 89.15528,-91.04401 84.8568,-84.82259 89.36621,-88.84127 93.53021,-83.35193 10.9592,14.44739 12.49513,12.42082 -77.7831,102.62971 l -85.8882,85.82224 z"
       style="opacity:0.998;fill:#ff0000;fill-opacity:1;stroke-width:14.6263;stroke-linecap:round;stroke-linejoin:round" />
    <path
       transform="scale(0.26458334)"
       id="path21131"
       d="m 376.14079,655.26083 68.72027,-68.80193 0.91317,10.38518 c 1.10314,12.54559 -6.04486,38.27572 -16.20121,58.31831 -19.22402,37.93678 -68.39422,68.57117 -110.47481,68.82886 l -11.6777,0.0715 z"
       style="opacity:0.998;fill:#ff0000;fill-opacity:1;stroke-width:14.6263;stroke-linecap:round;stroke-linejoin:round" />
    <path
       transform="scale(0.26458334)"
       id="path21133"
       d="m 1061.3044,527.28983 -18.1691,-18.33206 79.9448,-79.90522 79.9449,-79.90521 17.9302,19.98657 17.9302,19.98656 -78.1385,78.25071 c -42.9762,43.03789 -78.8438,78.25071 -79.7059,78.25071 -0.8621,0 -9.7436,-8.24943 -19.7366,-18.33206 z"
       style="opacity:0.998;fill:#000000;fill-opacity:1;stroke-width:14.6263;stroke-linecap:round;stroke-linejoin:round" />
    <path
       transform="scale(0.26458334)"
       id="path21135"
       d="m 338.84601,1249.8783 -59.15737,-59.2365 343.0452,-341.15075 343.04517,-341.15069 17.44076,8.67569 c 24.71913,12.29623 79.43393,66.73235 90.64013,90.17838 l 8.1878,17.13092 -340.1968,342.39474 C 554.74266,1155.0372 400.83269,1309.1148 399.82874,1309.1148 c -1.00395,0 -28.44618,-26.6564 -60.98273,-59.2365 z"
       style="opacity:0.998;fill:#ffdf9b;fill-opacity:1;stroke-width:14.6263;stroke-linecap:round;stroke-linejoin:round" />
    <path
       transform="scale(0.26458334)"
       id="path21137"
       d="m 864.63589,439.48964 v -110.337 h 17.55156 17.55156 v 92.96858 92.96858 l -17.55156,17.36842 -17.55156,17.36842 z"
       style="opacity:0.998;fill:#fbab00;fill-opacity:1;stroke-width:14.6263;stroke-linecap:round;stroke-linejoin:round" />
    <path
       transform="scale(0.26458334)"
       id="path21139"
       d="M 674.49398,534.5606 V 329.15264 h 17.55156 17.55156 v 188.03954 188.03954 l -17.55156,17.36841 -17.55156,17.36841 z"
       style="opacity:0.998;fill:#fbab00;fill-opacity:1;stroke-width:14.6263;stroke-linecap:round;stroke-linejoin:round" />
    <path
       transform="scale(0.26458334)"
       id="path21141"
       d="M 487.27733,628.16893 V 329.15264 h 17.55156 17.55156 V 610.8005 892.44837 l -17.55156,17.36842 -17.55156,17.36841 z"
       style="opacity:0.998;fill:#fbab00;fill-opacity:1;stroke-width:14.6263;stroke-linecap:round;stroke-linejoin:round" />
    <path
       transform="scale(0.26458334)"
       id="path21143"
       d="m 487.27733,1296.5909 c 0,-15.0024 0.50765,-15.9516 17.55156,-32.8176 l 17.55156,-17.3685 v 32.8177 32.8176 h -17.55156 -17.55156 z"
       style="opacity:0.998;fill:#fbab00;fill-opacity:1;stroke-width:14.6263;stroke-linecap:round;stroke-linejoin:round" />
    <path
       transform="scale(0.26458334)"
       id="path21145"
       d="M 674.49398,1202.9825 V 1093.925 l 17.55156,-17.3684 17.55156,-17.3684 v 126.4259 126.426 h -17.55156 -17.55156 z"
       style="opacity:0.998;fill:#fbab00;fill-opacity:1;stroke-width:14.6263;stroke-linecap:round;stroke-linejoin:round" />
    <path
       transform="scale(0.26458334)"
       id="path21147"
       d="M 864.63589,1107.9116 V 903.78312 l 17.55156,-17.36842 17.55156,-17.36842 v 221.49692 221.4969 h -17.55156 -17.55156 z"
       style="opacity:0.998;fill:#fbab00;fill-opacity:1;stroke-width:14.6263;stroke-linecap:round;stroke-linejoin:round" />
    <path
       transform="scale(0.26458334)"
       id="path21149"
       d="m 741.91127,303.07999 c -1.64714,-3.0777 -8.93347,-7.86383 -16.19185,-10.63583 l -13.19706,-5.04 v -17.15414 -17.15414 h 74.73372 74.73372 l -0.8709,18.10802 c -0.84005,17.46664 -1.18744,18.18965 -9.80786,20.41272 -4.91534,1.26759 -12.05572,5.62447 -15.86753,9.68195 -6.7816,7.21868 -7.82908,7.37725 -48.734,7.37725 -38.17535,0 -42.06336,-0.48566 -44.79824,-5.59583 z"
       style="opacity:0.998;fill:#c76300;fill-opacity:1;stroke-width:14.6263;stroke-linecap:round;stroke-linejoin:round" />
    <path
       transform="scale(0.26458334)"
       id="path21151"
       d="m 547.80651,299.70502 c -4.51794,-4.52012 -11.09977,-8.62902 -14.6263,-9.13089 -5.70554,-0.81198 -6.5078,-2.92652 -7.28277,-19.19538 l -0.8709,-18.28287 h 74.73372 74.73372 v 17.15414 17.15414 l -13.32953,5.0906 c -7.33125,2.79982 -14.88792,7.58595 -16.7926,10.63583 -3.15988,5.05977 -7.17884,5.51229 -45.90698,5.16903 -42.40587,-0.37587 -42.45129,-0.38357 -50.65836,-8.5946 z"
       style="opacity:0.998;fill:#c76300;fill-opacity:1;stroke-width:14.6263;stroke-linecap:round;stroke-linejoin:round" />
  </g>
</svg>
