<?xml version="1.0" encoding="UTF-8" standalone="no"?>
<svg
   xmlns:dc="http://purl.org/dc/elements/1.1/"
   xmlns:cc="http://creativecommons.org/ns#"
   xmlns:rdf="http://www.w3.org/1999/02/22-rdf-syntax-ns#"
   xmlns:svg="http://www.w3.org/2000/svg"
   xmlns="http://www.w3.org/2000/svg"
   xmlns:sodipodi="http://sodipodi.sourceforge.net/DTD/sodipodi-0.dtd"
   xmlns:inkscape="http://www.inkscape.org/namespaces/inkscape"
   sodipodi:docname="Food_Delivery.svg"
   inkscape:version="1.0 (4035a4fb49, 2020-05-01)"
   id="svg13868"
   version="1.1"
   viewBox="0 0 236.13047 236.13049"
   height="892.46167"
   width="892.46167">
  <defs
     id="defs13862" />
  <sodipodi:namedview
     inkscape:window-maximized="1"
     inkscape:window-y="-9"
     inkscape:window-x="-9"
     inkscape:window-height="1001"
     inkscape:window-width="1920"
     fit-margin-bottom="0"
     fit-margin-right="0"
     fit-margin-left="0"
     fit-margin-top="0"
     inkscape:pagecheckerboard="true"
     units="px"
     showgrid="false"
     inkscape:document-rotation="0"
     inkscape:current-layer="layer1"
     inkscape:document-units="px"
     inkscape:cy="137.61655"
     inkscape:cx="244.63457"
     inkscape:zoom="0.34184994"
     inkscape:pageshadow="2"
     inkscape:pageopacity="0.0"
     borderopacity="1.0"
     bordercolor="#666666"
     pagecolor="#ffffff"
     id="base" />
  <metadata
     id="metadata13865">
    <rdf:RDF>
      <cc:Work
         rdf:about="">
        <dc:format>image/svg+xml</dc:format>
        <dc:type
           rdf:resource="http://purl.org/dc/dcmitype/StillImage" />
        <dc:title></dc:title>
      </cc:Work>
    </rdf:RDF>
  </metadata>
  <g
     transform="translate(-88.199121,-147.79521)"
     id="layer1"
     inkscape:groupmode="layer"
     inkscape:label="Layer 1">
    <g
       transform="matrix(0.49193851,0,0,0.49193851,80.328105,139.92419)"
       id="g14665">
      <path
         d="m 322,416 c 0,35.35 -20.65,64 -56,64 H 134 C 98.65,480 78,451.35 78,416"
         style="fill:none;stroke:#000000;stroke-width:32px;stroke-linecap:round;stroke-miterlimit:10"
         id="path14633" />
      <path
         d="m 336,336 c 17.67,0 32,17.91 32,40 v 0 c 0,22.09 -14.33,40 -32,40 H 64 C 46.33,416 32,398.09 32,376 v 0 c 0,-22.09 14.33,-40 32,-40"
         style="fill:none;stroke:#000000;stroke-width:32px;stroke-linecap:round;stroke-miterlimit:10"
         id="path14635" />
      <path
         d="M 344,336 H 179.31 a 8,8 0 0 0 -5.65,2.34 l -26.83,26.83 a 4,4 0 0 1 -5.66,0 L 114.34,338.34 A 8,8 0 0 0 108.69,336 H 56 A 24,24 0 0 1 32,312 v 0 a 24,24 0 0 1 24,-24 h 288 a 24,24 0 0 1 24,24 v 0 a 24,24 0 0 1 -24,24 z"
         style="fill:none;stroke:#000000;stroke-width:32px;stroke-linecap:round;stroke-miterlimit:10"
         id="path14637" />
      <path
         d="m 64,276 v -0.22 C 64,220.78 109,192 164,192 h 72 c 55,0 100,29 100,84 v -0.22"
         style="fill:none;stroke:#000000;stroke-width:32px;stroke-linecap:round;stroke-miterlimit:10"
         id="path14639" />
      <line
         x1="241"
         y1="112"
         x2="248.44"
         y2="175.97"
         style="fill:none;stroke:#000000;stroke-width:32px;stroke-linecap:round;stroke-miterlimit:10"
         id="line14641" />
      <path
         d="m 256,480 h 139.31 a 32,32 0 0 0 31.91,-29.61 L 463,112"
         style="fill:none;stroke:#000000;stroke-width:32px;stroke-linecap:round;stroke-miterlimit:10"
         id="path14643" />
      <polyline
         points="368 112 384 48 431 32"
         style="fill:none;stroke:#000000;stroke-width:32px;stroke-linecap:round;stroke-linejoin:round"
         id="polyline14645" />
      <line
         x1="224"
         y1="112"
         x2="480"
         y2="112"
         style="fill:none;stroke:#000000;stroke-width:32px;stroke-linecap:round;stroke-miterlimit:10"
         id="line14647" />
    </g>
    <path
       transform="scale(0.26458333)"
       id="path14667"
       d="m 910.47321,1389.1646 c 9.27679,-18.0614 18.69453,-43.9697 18.69453,-51.4288 0,-3.7227 2.99716,-5.9774 7.97133,-5.9968 12.10375,-0.047 30.78417,-8.1593 43.60547,-18.9362 11.47582,-9.6459 18.05575,-18.266 25.16676,-32.9698 8.9381,-18.482 11.5647,-30.0104 11.6636,-51.192 0.1027,-21.9813 -3.0422,-35.7038 -12.5077,-54.577 l -6.88678,-13.7315 5.60498,-7.4055 c 11.2136,-14.8156 16.3286,-35.7121 13.3937,-54.7172 -4.3499,-28.1688 -24.72092,-52.6207 -50.05962,-60.0884 l -8.12494,-2.3945 -1.67721,-15.4342 c -5.99306,-55.14945 -32.35676,-98.03201 -78.93452,-128.39293 -20.22424,-13.18282 -48.52854,-24.73563 -72.90377,-29.75673 l -8.87225,-1.8276 -4.75222,-41.81358 c -2.61372,-22.99747 -5.11175,-43.95268 -5.55118,-46.56713 l -0.79896,-4.75355 h 172.81941 172.81936 l -0.8098,4.75355 c -0.4454,2.61445 -14.6075,136.06116 -31.4713,296.54827 -16.8638,160.4871 -31.3556,295.0461 -32.204,299.0201 -1.9027,8.9125 -7.1491,16.0171 -14.6559,19.8467 -5.4571,2.7841 -8.6993,2.9118 -73.89998,2.9118 -37.50584,0 -67.9389,-0.4936 -67.62901,-1.097 z"
       style="opacity:0.998;fill:#ff2626;fill-opacity:1;stroke-width:7.31315;stroke-linecap:round;stroke-linejoin:round" />
    <path
       transform="scale(0.26458333)"
       id="path14669"
       d="m 453.83458,1027.895 c 0.0496,-12.5795 6.84461,-33.79714 15.68511,-48.97716 13.73512,-23.58457 43.63599,-44.78853 76.43897,-54.20606 26.08473,-7.48877 28.16377,-7.61101 129.44276,-7.61101 101.16632,0 103.41064,0.13123 129.24833,7.55786 28.55571,8.20786 54.61155,24.79675 69.65525,44.34717 12.13463,15.76986 22.68488,43.2922 22.68488,59.1779 v 5.1962 H 675.40142 453.81296 Z"
       style="opacity:0.998;fill:#f38500;fill-opacity:1;stroke-width:7.31315;stroke-linecap:round;stroke-linejoin:round" />
    <path
       transform="scale(0.26458333)"
       id="path14671"
       d="m 529.38185,1387.2285 c -20.04614,-6.8957 -34.64765,-21.6129 -42.71956,-43.058 -1.9782,-5.2556 -3.59673,-9.8697 -3.59673,-10.2535 0,-0.3839 86.62249,-0.698 192.49442,-0.698 H 868.0544 l -1.00031,4.0223 c -1.82423,7.3352 -9.38966,21.715 -15.38834,29.249 -7.22307,9.0718 -18.38994,16.6881 -30.39977,20.7339 -8.87733,2.9906 -11.13152,3.0366 -146.18407,2.9884 -133.44327,-0.048 -137.39939,-0.1287 -145.70006,-2.9841 z"
       style="opacity:0.998;fill:#f38500;fill-opacity:1;stroke-width:7.31315;stroke-linecap:round;stroke-linejoin:round" />
    <path
       transform="scale(0.26458333)"
       id="path14673"
       d="m 551.32187,1150.1867 c -10.32359,-10.3814 -21.2045,-20.1172 -24.17979,-21.6351 -9.88649,-5.0437 -21.1279,-5.9513 -73.71026,-5.9513 h -51.03593 l -4.27538,-4.2754 c -5.90072,-5.9007 -5.90072,-13.3385 0,-19.2392 l 4.27538,-4.2754 h 273.00553 273.00553 l 4.27537,4.2754 c 5.58842,5.5884 5.7857,12.7195 0.52487,18.9716 l -3.75052,4.4573 -161.16102,0.4085 -161.16102,0.4085 -8.53271,3.9974 c -6.39361,2.9953 -13.38763,8.7705 -27.89856,23.0365 -10.65121,10.4714 -19.64606,18.9619 -19.98856,18.8678 -0.34251,-0.094 -9.06933,-8.6651 -19.39293,-19.0466 z"
       style="opacity:0.998;fill:#dffb00;fill-opacity:1;stroke-width:7.31315;stroke-linecap:round;stroke-linejoin:round" />
    <path
       transform="scale(0.26458333)"
       id="path14675"
       d="m 413.59063,1269.0432 c -6.64296,-4.1398 -11.90926,-10.3547 -15.64485,-18.4628 -2.83911,-6.1623 -3.36934,-9.7299 -3.36934,-22.6707 0,-17.3522 2.78873,-25.8727 11.41031,-34.8623 8.64161,-9.0105 8.678,-9.0166 53.25457,-9.0166 h 40.67676 l 24.84857,25.0235 c 27.44849,27.6417 31.98875,30.6837 45.89624,30.7502 14.97977,0.072 20.01855,-3.1956 47.74805,-30.9612 l 24.78035,-24.8125 h 144.88939 144.8894 l 5.83737,3.785 c 11.25517,7.298 18.02209,22.0496 18.1025,39.4627 0.0844,18.2655 -7.0687,34.1941 -18.44923,41.0831 l -5.63641,3.412 H 675.40142 c -248.89779,0 -257.56821,-0.088 -261.81079,-2.7324 z"
       style="opacity:0.998;fill:#c75000;fill-opacity:1;stroke-width:7.31315;stroke-linecap:round;stroke-linejoin:round" />
    <ellipse
       ry="2.1891322"
       rx="3.8309813"
       cy="252.02383"
       cx="140.10446"
       id="path14677"
       style="opacity:0.998;fill:#ffffff;fill-opacity:1;stroke-width:0.903256;stroke-linecap:round;stroke-linejoin:round" />
    <ellipse
       ry="2.1891322"
       rx="3.8309813"
       cy="256.40207"
       cx="166.64769"
       id="ellipse14681"
       style="opacity:0.998;fill:#ffffff;fill-opacity:1;stroke-width:0.903256;stroke-linecap:round;stroke-linejoin:round" />
    <ellipse
       style="opacity:0.998;fill:#ffffff;fill-opacity:1;stroke-width:0.903256;stroke-linecap:round;stroke-linejoin:round"
       id="ellipse14683"
       cx="152.1447"
       cy="264.33768"
       rx="3.8309813"
       ry="2.1891322" />
    <ellipse
       ry="2.1891322"
       rx="3.8309813"
       cy="250.92924"
       cx="186.3499"
       id="ellipse14685"
       style="opacity:0.998;fill:#ffffff;fill-opacity:1;stroke-width:0.903256;stroke-linecap:round;stroke-linejoin:round" />
    <ellipse
       style="opacity:0.998;fill:#ffffff;fill-opacity:1;stroke-width:0.903256;stroke-linecap:round;stroke-linejoin:round"
       id="ellipse14687"
       cx="201.12653"
       cy="261.87491"
       rx="3.8309813"
       ry="2.1891322" />
    <ellipse
       ry="2.1891322"
       rx="3.8309813"
       cy="255.03389"
       cx="216.99774"
       id="ellipse14689"
       style="opacity:0.998;fill:#ffffff;fill-opacity:1;stroke-width:0.903256;stroke-linecap:round;stroke-linejoin:round" />
  </g>
</svg>
