<?xml version="1.0" encoding="UTF-8" standalone="no"?>
<svg
   xmlns:dc="http://purl.org/dc/elements/1.1/"
   xmlns:cc="http://creativecommons.org/ns#"
   xmlns:rdf="http://www.w3.org/1999/02/22-rdf-syntax-ns#"
   xmlns:svg="http://www.w3.org/2000/svg"
   xmlns="http://www.w3.org/2000/svg"
   xmlns:sodipodi="http://sodipodi.sourceforge.net/DTD/sodipodi-0.dtd"
   xmlns:inkscape="http://www.inkscape.org/namespaces/inkscape"
   sodipodi:docname="Medicine.svg"
   inkscape:version="1.0 (4035a4fb49, 2020-05-01)"
   id="svg16257"
   version="1.1"
   viewBox="0 0 231.54332 231.5578"
   height="875.17908"
   width="875.12439">
  <defs
     id="defs16251" />
  <sodipodi:namedview
     inkscape:window-maximized="1"
     inkscape:window-y="-9"
     inkscape:window-x="-9"
     inkscape:window-height="1001"
     inkscape:window-width="1920"
     inkscape:pagecheckerboard="true"
     units="px"
     showgrid="false"
     inkscape:document-rotation="0"
     inkscape:current-layer="layer1"
     inkscape:document-units="px"
     inkscape:cy="693.55678"
     inkscape:cx="336.15715"
     inkscape:zoom="0.34184994"
     inkscape:pageshadow="2"
     inkscape:pageopacity="0.0"
     borderopacity="1.0"
     bordercolor="#666666"
     pagecolor="#ffffff"
     id="base" />
  <metadata
     id="metadata16254">
    <rdf:RDF>
      <cc:Work
         rdf:about="">
        <dc:format>image/svg+xml</dc:format>
        <dc:type
           rdf:resource="http://purl.org/dc/dcmitype/StillImage" />
        <dc:title></dc:title>
      </cc:Work>
    </rdf:RDF>
  </metadata>
  <g
     transform="translate(-82.749249,-79.649811)"
     id="layer1"
     inkscape:groupmode="layer"
     inkscape:label="Layer 1">
    <g
       transform="matrix(0.54151091,0,0,0.54151091,82.742236,79.649687)"
       id="g18062">
      <g
         id="g17987">
	<g
   id="g17985">
		<path
   d="m 333.363,28.977 c -37.8,-38.3 -99.5,-38.7 -137.8,-0.8 -0.3,0.3 -0.5,0.5 -0.8,0.8 l -81,81 c -1.6,0.9 -2.9,2.2 -3.8,3.8 l -81.5,81.4 c -38,38.1 -37.9,99.8 0.1,137.8 38.3,37.9 99.9,37.9 138.3,0 l 0.1,-0.1 81.4,-81.7 c 0.6,-0.4 1.1,-0.8 1.6,-1.3 0.5,-0.5 0.9,-1 1.3,-1.6 l 81.3,-81.5 c 38.3,-37.8 38.6,-99.5 0.8,-137.8 z m -180.6,289.8 c -30.5,30.1 -79.6,30.2 -110.1,0 -30.1,-30.3 -30.1,-79.2 0,-109.5 l 76.4,-76.4 109.6,109.8 z m 165.7,-166.3 -75.7,75.9 -109.6,-109.6 75.8,-75.8 c 30.2,-30.2 79.3,-30.2 109.5,0 30.2,30.2 30.2,79.3 0,109.5 z"
   id="path17983" />

	</g>

</g>
      <g
         id="g17993">
	<g
   id="g17991">
		<path
   d="m 240.863,73.777 c -3.8,-4 -10.1,-4.1 -14.1,-0.1 l -34.6,34 c -4,3.9 -4,10.2 -0.2,14.1 3.8,3.9 10.2,4 14.1,0.2 l 0.1,-0.1 34.5,-34 c 4,-3.9 4,-10.2 0.2,-14.1 z"
   id="path17989" />

	</g>

</g>
      <g
         id="g17999">
	<g
   id="g17997">
		<path
   d="m 399.263,262.077 c 0,0 0,0 -0.1,-0.1 -37.3,-37.9 -98.3,-38.3 -136.2,-0.9 -0.3,0.3 -0.6,0.6 -0.9,0.9 -37.9,37.9 -37.9,99.3 -0.1,137.2 37.8,37.9 99.3,37.9 137.2,0.1 37.9,-37.9 37.9,-99.3 0.1,-137.2 z m -145.6,68.5 c 0,-42.5 34.5,-77 77,-77 16.9,0 33.4,5.6 46.8,15.9 l -107.9,108 c -10.3,-13.5 -15.9,-30 -15.9,-46.9 z m 131.4,54.4 c -27.3,27.3 -70.7,30.1 -101.3,6.6 l 107.9,-107.9 c 23.6,30.6 20.8,74 -6.6,101.3 z"
   id="path17995" />

	</g>

</g>
      <g
         id="g18001">
</g>
      <g
         id="g18003">
</g>
      <g
         id="g18005">
</g>
      <g
         id="g18007">
</g>
      <g
         id="g18009">
</g>
      <g
         id="g18011">
</g>
      <g
         id="g18013">
</g>
      <g
         id="g18015">
</g>
      <g
         id="g18017">
</g>
      <g
         id="g18019">
</g>
      <g
         id="g18021">
</g>
      <g
         id="g18023">
</g>
      <g
         id="g18025">
</g>
      <g
         id="g18027">
</g>
      <g
         id="g18029">
</g>
    </g>
    <path
       id="path18064"
       d="m 184.70404,173.52949 -29.48358,-29.52517 3.63993,-3.68375 c 16.97438,-17.17874 39.62442,-39.55182 41.37122,-40.865345 7.57569,-5.696598 16.31704,-8.577056 25.7638,-8.489711 19.17666,0.177302 35.31294,12.885576 40.17363,31.639116 0.8712,3.36121 0.96936,4.47109 0.91495,10.34372 -0.0547,5.90706 -0.17028,6.9725 -1.13214,10.43864 -1.3235,4.76931 -4.68597,11.47363 -7.45934,14.87292 -1.49748,1.83543 -44.08235,44.93326 -44.27809,44.81144 -0.0148,-0.009 -13.29442,-13.30301 -29.51038,-29.54186 z m 7.347,-26.37161 c 1.05251,-0.28163 3.83256,-2.79214 12.01392,-10.84911 11.14947,-10.97995 10.9101,-10.67251 10.67707,-13.71297 -0.26698,-3.48332 -4.02314,-5.61674 -7.57801,-4.30414 -1.06957,0.39492 -18.22265,16.79811 -20.55446,19.65586 -2.78607,3.41447 -1.29531,8.49523 2.72388,9.28349 0.52896,0.10374 1.0487,0.21218 1.15498,0.24096 0.10628,0.0288 0.80945,-0.11256 1.56262,-0.31409 z"
       style="opacity:0.998;fill:#ff1616;fill-opacity:1;stroke-width:1.936;stroke-linecap:round;stroke-linejoin:round" />
  </g>
</svg>
