<?xml version="1.0" encoding="UTF-8" standalone="no"?>
<svg
   xmlns:dc="http://purl.org/dc/elements/1.1/"
   xmlns:cc="http://creativecommons.org/ns#"
   xmlns:rdf="http://www.w3.org/1999/02/22-rdf-syntax-ns#"
   xmlns:svg="http://www.w3.org/2000/svg"
   xmlns="http://www.w3.org/2000/svg"
   xmlns:sodipodi="http://sodipodi.sourceforge.net/DTD/sodipodi-0.dtd"
   xmlns:inkscape="http://www.inkscape.org/namespaces/inkscape"
   sodipodi:docname="News.svg"
   inkscape:version="1.0 (4035a4fb49, 2020-05-01)"
   id="svg3734"
   version="1.1"
   viewBox="0 0 195.70024 195.70025"
   height="739.65448"
   width="739.65448">
  <defs
     id="defs3728" />
  <sodipodi:namedview
     inkscape:window-maximized="1"
     inkscape:window-y="-9"
     inkscape:window-x="-9"
     inkscape:window-height="1001"
     inkscape:window-width="1920"
     fit-margin-bottom="0"
     fit-margin-right="0"
     fit-margin-left="0"
     fit-margin-top="0"
     inkscape:pagecheckerboard="true"
     units="px"
     showgrid="false"
     inkscape:document-rotation="0"
     inkscape:current-layer="layer1"
     inkscape:document-units="px"
     inkscape:cy="437.70664"
     inkscape:cx="296.01756"
     inkscape:zoom="0.48344881"
     inkscape:pageshadow="2"
     inkscape:pageopacity="0.0"
     borderopacity="1.0"
     bordercolor="#666666"
     pagecolor="#ffffff"
     id="base" />
  <metadata
     id="metadata3731">
    <rdf:RDF>
      <cc:Work
         rdf:about="">
        <dc:format>image/svg+xml</dc:format>
        <dc:type
           rdf:resource="http://purl.org/dc/dcmitype/StillImage" />
        <dc:title></dc:title>
      </cc:Work>
    </rdf:RDF>
  </metadata>
  <g
     transform="translate(-80.290509,-131.18783)"
     id="layer1"
     inkscape:groupmode="layer"
     inkscape:label="Layer 1">
    <g
       transform="matrix(0.43683089,0,0,0.43683089,66.311921,117.20924)"
       id="g4583">
      <path
         d="M 368,415.86 V 72 A 24.07,24.07 0 0 0 344,48 H 72 A 24.07,24.07 0 0 0 48,72 v 352 a 40.12,40.12 0 0 0 40,40 h 328"
         style="fill:none;stroke:#000000;stroke-width:32px;stroke-linejoin:round"
         id="path4551" />
      <path
         d="m 416,464 v 0 A 48,48 0 0 1 368,416 V 128 h 72 a 24,24 0 0 1 24,24 v 264 a 48,48 0 0 1 -48,48 z"
         style="fill:none;stroke:#000000;stroke-width:32px;stroke-linejoin:round"
         id="path4553" />
      <line
         x1="240"
         y1="128"
         x2="304"
         y2="128"
         style="fill:none;stroke:#000000;stroke-width:32px;stroke-linecap:round;stroke-linejoin:round"
         id="line4555" />
      <line
         x1="240"
         y1="192"
         x2="304"
         y2="192"
         style="fill:none;stroke:#000000;stroke-width:32px;stroke-linecap:round;stroke-linejoin:round"
         id="line4557" />
      <line
         x1="112"
         y1="256"
         x2="304"
         y2="256"
         style="fill:none;stroke:#000000;stroke-width:32px;stroke-linecap:round;stroke-linejoin:round"
         id="line4559" />
      <line
         x1="112"
         y1="320"
         x2="304"
         y2="320"
         style="fill:none;stroke:#000000;stroke-width:32px;stroke-linecap:round;stroke-linejoin:round"
         id="line4561" />
      <line
         x1="112"
         y1="384"
         x2="304"
         y2="384"
         style="fill:none;stroke:#000000;stroke-width:32px;stroke-linecap:round;stroke-linejoin:round"
         id="line4563" />
      <path
         d="M 176,208 H 112 A 16,16 0 0 1 96,192 v -64 a 16,16 0 0 1 16,-16 h 64 a 16,16 0 0 1 16,16 v 64 a 16,16 0 0 1 -16,16 z"
         id="path4565" />
    </g>
    <path
       transform="scale(0.26458333)"
       id="path4585"
       d="m 384.63738,1179.449 c -11.44388,-4.0767 -17.77158,-9.2962 -22.73085,-18.7498 -4.26876,-8.1373 -4.27888,-8.8632 -4.27888,-306.70031 0,-293.13827 0.0727,-298.59683 4.01517,-301.47969 3.41045,-2.49382 38.487,-2.93601 232.89955,-2.93601 219.11252,0 229.03053,0.16149 232.30767,3.7827 3.1508,3.48158 3.42454,26.73883 3.43892,292.17157 0.0103,185.99604 0.76442,293.00304 2.12459,301.38464 1.15991,7.1477 4.35951,18.0848 7.11018,24.3046 l 5.00125,11.3087 -225.86666,-0.091 c -188.51188,-0.076 -227.21525,-0.5712 -234.02094,-2.9956 z m 382.68096,-79.7349 c 4.44715,-2.7485 8.05531,-7.4354 10.3504,-13.445 3.33037,-8.7205 3.32497,-9.7451 -0.0985,-18.709 -2.3364,-6.1177 -5.92296,-10.8864 -10.10626,-13.4373 -6.24221,-3.8063 -12.69263,-3.9544 -172.58212,-3.9618 -183.3281,-0.01 -174.18141,-0.6611 -182.52361,13.0206 -7.68398,12.6022 -3.67761,28.9838 8.97517,36.6987 6.42259,3.9161 11.63165,4.038 172.88991,4.0455 163.74713,0.01 166.37128,-0.056 173.09487,-4.2117 z m -1.71818,-104.74349 c 13.68687,-6.49486 18.23379,-25.86051 9.28026,-39.5253 -7.29361,-11.13146 -1.42815,-10.7841 -182.09961,-10.7841 -166.59675,0 -167.39531,0.0207 -172.8614,4.31959 -15.83577,12.45641 -15.1236,35.3238 1.41415,45.40745 6.42162,3.91549 11.62262,4.03799 171.78721,4.04547 150.32472,0.006 165.82231,-0.30412 172.47939,-3.46311 z m 3.75382,-108.2266 c 11.3677,-10.49011 13.49221,-24.63345 5.52644,-36.79074 -7.29428,-11.13247 -1.4018,-10.7841 -182.40895,-10.7841 H 424.79221 l -7.41308,6.79358 c -13.43226,12.30975 -11.48197,33.49418 3.95443,42.95388 6.45543,3.95601 10.84803,4.04481 174.51937,3.52836 l 167.89726,-0.5298 z m -216.33571,-102.348 c 3.25603,-1.68376 7.86386,-5.53254 10.23963,-8.55284 4.16182,-5.29088 4.31958,-7.75143 4.31958,-67.36936 0,-67.3602 -0.34754,-69.642 -11.78798,-77.39596 -5.27152,-3.57285 -10.8549,-3.98679 -61.91388,-4.59007 -61.79276,-0.73011 -68.95818,0.18999 -78.4293,10.07099 l -6.10689,6.37118 -0.56086,61.40424 c -0.80957,88.63263 -6.1054,83.11528 79.78261,83.11999 47.64075,0.002 59.63901,-0.56666 64.45709,-3.05817 z m 217.0888,-4.00235 c 13.36227,-12.80803 12.80217,-31.26981 -1.2744,-42.00652 l -7.5311,-5.74424 h -61.27188 c -67.97572,0 -68.12995,0.0283 -76.69449,14.07457 -7.73379,12.68377 -2.85518,29.73098 10.5932,37.01555 6.51549,3.52925 11.97423,3.7893 68.48406,3.26254 l 61.40425,-0.57241 z m -3.74511,-103.10967 c 15.50241,-10.32555 17.77936,-29.42055 5.03096,-42.19077 -8.76538,-8.78037 -14.37983,-9.39359 -78.77002,-8.60348 -59.60345,0.73139 -60.91939,1.01125 -69.2877,14.73569 -7.72943,12.67662 -2.84506,29.77057 10.56091,36.96028 6.35519,3.40832 12.86308,3.77964 66.2425,3.77964 58.04027,0 59.33201,-0.0913 66.22335,-4.68136 z"
       style="opacity:0.998;fill:#b7c3b7;fill-opacity:1;stroke-width:10.3424;stroke-linecap:round;stroke-linejoin:round" />
    <path
       transform="scale(0.26458333)"
       id="path4587"
       d="m 926.90715,1180.3221 c -16.57562,-3.9975 -30.183,-14.9831 -36.91482,-29.8021 -3.58683,-7.8959 -3.78172,-20.0457 -3.82484,-238.43722 l -0.0454,-230.11743 h 48.5614 48.56139 l 3.18626,4.86285 c 2.82897,4.31756 3.12425,30.23704 2.63327,231.15167 l -0.55299,226.28883 -4.53219,8.4697 c -11.13049,20.8006 -35.78645,32.7171 -57.07205,27.5837 z"
       style="opacity:0.998;fill:#b7c3b7;fill-opacity:1;stroke-width:10.3424;stroke-linecap:round;stroke-linejoin:round" />
  </g>
</svg>
