<?xml version="1.0" encoding="UTF-8" standalone="no"?>
<svg
   xmlns:dc="http://purl.org/dc/elements/1.1/"
   xmlns:cc="http://creativecommons.org/ns#"
   xmlns:rdf="http://www.w3.org/1999/02/22-rdf-syntax-ns#"
   xmlns:svg="http://www.w3.org/2000/svg"
   xmlns="http://www.w3.org/2000/svg"
   xmlns:sodipodi="http://sodipodi.sourceforge.net/DTD/sodipodi-0.dtd"
   xmlns:inkscape="http://www.inkscape.org/namespaces/inkscape"
   sodipodi:docname="Online_Learning.svg"
   inkscape:version="1.0 (4035a4fb49, 2020-05-01)"
   id="svg8"
   version="1.1"
   viewBox="0 0 338.24811 232.5456"
   height="878.91248"
   width="1278.4181">
  <defs
     id="defs2" />
  <sodipodi:namedview
     inkscape:window-maximized="1"
     inkscape:window-y="-9"
     inkscape:window-x="-9"
     inkscape:window-height="1001"
     inkscape:window-width="1920"
     fit-margin-bottom="0"
     fit-margin-right="0"
     fit-margin-left="0"
     fit-margin-top="0"
     units="px"
     inkscape:pagecheckerboard="true"
     showgrid="false"
     inkscape:document-rotation="0"
     inkscape:current-layer="layer1"
     inkscape:document-units="px"
     inkscape:cy="560.48439"
     inkscape:cx="629.67265"
     inkscape:zoom="0.34184994"
     inkscape:pageshadow="2"
     inkscape:pageopacity="0.0"
     borderopacity="1.0"
     bordercolor="#666666"
     pagecolor="#ffffff"
     id="base" />
  <metadata
     id="metadata5">
    <rdf:RDF>
      <cc:Work
         rdf:about="">
        <dc:format>image/svg+xml</dc:format>
        <dc:type
           rdf:resource="http://purl.org/dc/dcmitype/StillImage" />
        <dc:title></dc:title>
      </cc:Work>
    </rdf:RDF>
  </metadata>
  <g
     transform="translate(-41.397155,-34.700717)"
     id="layer1"
     inkscape:groupmode="layer"
     inkscape:label="Layer 1">
    <g
       transform="matrix(0.66064089,0,0,0.66064089,41.397155,-18.150554)"
       id="g2909">
      <rect
         x="48"
         y="96"
         width="416"
         height="304"
         rx="32.139999"
         ry="32.139999"
         style="fill:none;stroke:#000000;stroke-width:32px;stroke-linejoin:round"
         id="rect2895" />
      <line
         x1="16"
         y1="416"
         x2="496"
         y2="416"
         style="stroke:#000000;stroke-width:32px;stroke-linecap:round;stroke-miterlimit:10"
         id="line2897" />
    </g>
    <path
       transform="scale(0.26458333)"
       id="path2911"
       d="m 336.79469,883.25029 c -4.19395,-2.27954 -10.1176,-7.82139 -13.16367,-12.31523 -5.34856,-7.89071 -5.5383,-18.86184 -5.5383,-320.22741 0,-311.01821 0.0202,-312.08425 6.05846,-320.31598 3.33215,-4.54257 10.57217,-10.56082 16.08893,-13.37388 9.41934,-4.80304 37.18322,-5.11494 455.69055,-5.1192 494.11604,-0.005 458.77704,-1.42927 471.40194,18.99832 5.8804,9.51464 5.9286,12.52901 5.1654,323.15504 l -0.7705,313.55083 -10.9267,10.01316 -10.9268,10.0132 -452.72696,-0.11701 c -384.91568,-0.0997 -453.86914,-0.73802 -460.35235,-4.26184 z"
       style="opacity:0.998;fill:#17ff08;fill-opacity:1;stroke-width:14.6263;stroke-linecap:round;stroke-linejoin:round" />
    <g
       transform="matrix(0.26458333,0,0,0.26458333,142.78732,83.240181)"
       id="g3157">
      <path
         d="M 64,480 H 48 A 32,32 0 0 1 16,448 V 112 A 32,32 0 0 1 48,80 h 16 a 32,32 0 0 1 32,32 v 336 a 32,32 0 0 1 -32,32 z"
         id="path3131" />
      <path
         d="m 240,176 a 32,32 0 0 0 -32,-32 h -64 a 32,32 0 0 0 -32,32 v 28 a 4,4 0 0 0 4,4 h 120 a 4,4 0 0 0 4,-4 z"
         id="path3133" />
      <path
         d="m 112,448 a 32,32 0 0 0 32,32 h 64 a 32,32 0 0 0 32,-32 v -30 a 2,2 0 0 0 -2,-2 H 114 a 2,2 0 0 0 -2,2 z"
         id="path3135" />
      <rect
         x="112"
         y="240"
         width="128"
         height="144"
         rx="2"
         ry="2"
         id="rect3137" />
      <path
         d="M 320,480 H 288 A 32,32 0 0 1 256,448 V 64 a 32,32 0 0 1 32,-32 h 32 a 32,32 0 0 1 32,32 v 384 a 32,32 0 0 1 -32,32 z"
         id="path3139" />
      <path
         d="m 495.89,445.45 -32.23,-340 c -1.48,-15.65 -16.94,-27 -34.53,-25.31 l -31.85,3 c -17.59,1.67 -30.65,15.71 -29.17,31.36 l 32.23,340 c 1.48,15.65 16.94,27 34.53,25.31 l 31.85,-3 c 17.59,-1.67 30.65,-15.71 29.17,-31.36 z"
         id="path3141" />
    </g>
  </g>
</svg>
