<?xml version="1.0" encoding="UTF-8" standalone="no"?>
<svg
   xmlns:dc="http://purl.org/dc/elements/1.1/"
   xmlns:cc="http://creativecommons.org/ns#"
   xmlns:rdf="http://www.w3.org/1999/02/22-rdf-syntax-ns#"
   xmlns:svg="http://www.w3.org/2000/svg"
   xmlns="http://www.w3.org/2000/svg"
   xmlns:sodipodi="http://sodipodi.sourceforge.net/DTD/sodipodi-0.dtd"
   xmlns:inkscape="http://www.inkscape.org/namespaces/inkscape"
   width="545.51428"
   height="969.80322"
   viewBox="0 0 144.33399 256.59376"
   version="1.1"
   id="svg8"
   inkscape:version="1.0 (4035a4fb49, 2020-05-01)"
   sodipodi:docname="Online_payment.svg">
  <defs
     id="defs2" />
  <sodipodi:namedview
     id="base"
     pagecolor="#ffffff"
     bordercolor="#666666"
     borderopacity="1.0"
     inkscape:pageopacity="0.0"
     inkscape:pageshadow="2"
     inkscape:zoom="0.47219127"
     inkscape:cx="275.07889"
     inkscape:cy="566.39562"
     inkscape:document-units="px"
     inkscape:current-layer="layer1"
     inkscape:document-rotation="0"
     showgrid="false"
     units="px"
     inkscape:pagecheckerboard="true"
     inkscape:window-width="1920"
     inkscape:window-height="1001"
     inkscape:window-x="-9"
     inkscape:window-y="-9"
     inkscape:window-maximized="1"
     fit-margin-top="0"
     fit-margin-left="0"
     fit-margin-right="0"
     fit-margin-bottom="0" />
  <metadata
     id="metadata5">
    <rdf:RDF>
      <cc:Work
         rdf:about="">
        <dc:format>image/svg+xml</dc:format>
        <dc:type
           rdf:resource="http://purl.org/dc/dcmitype/StillImage" />
        <dc:title />
      </cc:Work>
    </rdf:RDF>
  </metadata>
  <g
     inkscape:label="Layer 1"
     inkscape:groupmode="layer"
     id="layer1"
     transform="translate(-231.24334,-106.41106)">
    <g
       id="g1827"
       transform="matrix(0.5011597,0,0,0.5011597,175.11345,106.41106)">
      <rect
         id="rect1813"
         style="fill:none;stroke:#000000;stroke-width:32px;stroke-linecap:round;stroke-linejoin:round"
         ry="48"
         rx="48"
         height="480"
         width="256"
         y="16"
         x="128" />
      <path
         id="path1815"
         style="fill:none;stroke:#000000;stroke-width:32px;stroke-linecap:round;stroke-linejoin:round"
         d="m 176,16 h 24 a 8,8 0 0 1 8,8 v 0 a 16,16 0 0 0 16,16 h 64 a 16,16 0 0 0 16,-16 v 0 a 8,8 0 0 1 8,-8 h 24" />
    </g>
    <text
       xml:space="preserve"
       style="font-style:normal;font-weight:normal;font-size:50.2311px;line-height:1.25;font-family:sans-serif;letter-spacing:0px;word-spacing:0px;fill:#000000;fill-opacity:1;stroke:none;stroke-width:1.25578"
       x="254.82254"
       y="252.96822"
       id="text1833"><tspan
         sodipodi:role="line"
         id="tspan1831"
         x="254.82254"
         y="252.96822"
         style="stroke-width:1.25578">PAY</tspan></text>
    <path
       transform="matrix(0.26458333,0,0,0.26458333,231.24334,106.41106)"
       id="path4448"
       d="M 101.03066,904.55079 C 86.935278,899.354 75.753916,889.25004 68.883604,875.50133 L 62.24141,862.20913 V 484.86086 107.5126 L 68.774835,94.438059 C 75.726432,80.526682 83.028251,73.680417 98.303997,66.751196 105.87947,63.314889 112.2636,62.446298 130.21837,62.409092 l 22.44456,-0.04651 4.02614,9.00059 c 5.92519,13.245982 19.37473,25.703774 33.42565,30.960898 11.42234,4.27364 15.79917,4.51201 82.84638,4.51201 66.10392,0 71.55217,-0.2863 82.35379,-4.32771 13.86318,-5.186872 27.67798,-17.943008 33.37148,-30.814124 l 4.12784,-9.331664 22.66709,0.04651 c 18.18155,0.03731 24.55299,0.898409 32.19714,4.351444 11.59672,5.238496 24.1874,17.028661 30.35789,28.427726 l 4.58558,8.471148 v 381.20145 381.20146 l -4.58558,8.47114 c -6.17049,11.39907 -18.76117,23.18923 -30.35789,28.42772 -9.32682,4.21314 -13.05266,4.30249 -174.71734,4.19034 -120.94716,-0.0839 -166.99323,-0.78043 -171.93044,-2.60073 z m 26.39584,-375.49604 0.59263,-25.69302 19.83512,-0.86753 c 17.46458,-0.76384 21.04987,-1.61854 29.9993,-7.15155 13.63837,-8.43194 20.29338,-21.18957 20.20943,-38.74133 -0.0714,-14.9378 -3.80858,-23.41634 -13.51721,-30.66688 -10.87323,-8.12026 -21.15872,-10.31376 -49.93099,-10.64837 l -26.84097,-0.31214 -0.55815,70.53358 -0.55814,70.5336 10.08818,-0.64667 10.08818,-0.64664 z m 100.31888,6.63693 7.09558,-20.11498 28.88352,-0.004 28.88354,-0.004 6.93494,20.11896 6.93494,20.11897 h 10.24337 c 6.85386,0 10.19932,-0.87596 10.11025,-2.64723 -0.0733,-1.45598 -11.28877,-33.14335 -24.92344,-70.41638 l -24.79027,-67.76915 -11.7992,-0.62502 c -7.80913,-0.41367 -12.50912,0.30248 -13.89854,2.11778 -2.60906,3.40875 -49.50602,133.05106 -49.4474,136.69277 0.0275,1.71019 3.34064,2.64723 9.35987,2.64723 h 9.31726 l 7.09558,-20.11501 z m 162.77891,-11.12233 0.026,-31.23734 24.2759,-38.73624 c 25.67339,-40.96611 25.83767,-41.59043 10.60266,-40.2924 -7.6665,0.65319 -8.35289,1.45461 -26.4926,30.93241 l -18.62219,30.26184 -10.12865,-16.49624 c -28.71682,-46.77024 -27.3151,-45.08634 -37.53066,-45.08634 -5.07089,0 -9.76079,0.54098 -10.42199,1.2022 -0.66121,0.66121 9.66299,18.79518 22.94267,40.29769 l 24.14488,39.09552 v 29.23626 c 0,16.07995 0.63534,29.87161 1.41187,30.64811 0.7765,0.77653 5.54152,1.41187 10.58892,1.41187 h 9.17707 l 0.026,-31.23734 z"
       style="opacity:0.998;fill:#d3e41d;stroke-width:10.5889;stroke-linecap:round;stroke-linejoin:round;fill-opacity:1" />
    <path
       transform="matrix(0.26458333,0,0,0.26458333,231.24334,106.41106)"
       id="path4450"
       d="m 242.25321,496.76259 c 0,-2.29868 18.63989,-55.04092 20.53726,-58.11095 0.75396,-1.21992 2.53495,1.05407 3.95776,5.0533 1.42281,3.99924 6.44292,17.99264 11.1558,31.09644 l 8.56888,23.82509 h -22.10985 c -12.16042,0 -22.10985,-0.83875 -22.10985,-1.86388 z"
       style="opacity:0.998;fill:#d3e41d;fill-opacity:1;stroke-width:10.5889;stroke-linecap:round;stroke-linejoin:round" />
    <path
       transform="matrix(0.26458333,0,0,0.26458333,231.24334,106.41106)"
       id="path4452"
       d="m 127.89277,459.44743 v -26.47232 h 14.92967 c 23.41593,0 34.48533,7.85233 34.48533,24.46295 0,18.01409 -13.28658,28.47271 -36.17884,28.4784 l -13.23616,0.003 z"
       style="opacity:0.998;fill:#1de4a2;fill-opacity:1;stroke-width:10.5889;stroke-linecap:round;stroke-linejoin:round" />
    <path
       transform="matrix(0.26458333,0,0,0.26458333,231.24334,106.41106)"
       id="path4454"
       d="M 187.19078,905.24136 C 103.83565,904.21228 101.1745,904.05091 92.686257,899.51031 82.3834,893.99903 74.550844,885.20016 67.418565,871.12529 L 62.24141,860.90867 V 484.86086 108.81306 L 67.418565,98.59644 C 80.193641,73.386041 94.181295,65.204988 128.05124,63.133804 l 22.39521,-1.369491 6.55649,11.617463 c 7.11802,12.612425 15.29299,20.461713 28.88228,27.731624 8.53393,4.56542 10.37055,4.66379 87.07588,4.66379 h 78.35808 l 11.34191,-6.282152 C 375.19669,92.551722 384.4858,82.5462 390.03182,70.013389 l 3.64308,-8.232585 22.70751,1.296837 c 12.48912,0.713261 25.96418,2.657564 29.94456,4.320675 9.18768,3.838853 23.77439,16.961611 30.2418,27.206627 l 4.99424,7.911397 v 382.34452 382.34451 l -5.09855,8.07662 c -7.11271,11.26728 -23.69999,25.33787 -32.79774,27.82155 -9.2126,2.51502 -138.5787,3.59333 -256.47594,2.13782 z M 127.89277,530.48922 v -25.31746 l 6.88281,-1.05351 c 3.78554,-0.57945 13.23652,-1.45954 21.00217,-1.9558 16.93142,-1.08195 29.66434,-8.45793 37.27784,-21.59449 4.1958,-7.23954 4.79186,-10.833 4.2708,-25.74762 -0.55698,-15.94292 -1.11538,-17.87676 -6.95893,-24.1004 -11.08839,-11.80962 -20.99051,-14.77577 -54.0465,-16.18952 l -29.60605,-1.2662 v 71.27122 71.27125 h 10.58893 10.58893 z m 100.77498,5.1985 6.74458,-19.06007 28.36934,-0.58618 28.36933,-0.58618 6.41534,19.64625 6.41537,19.64626 10.99146,0.64012 c 8.73154,0.5085 10.99147,-0.0258 10.99147,-2.59901 0,-1.78153 -11.08453,-33.75696 -24.63228,-71.0565 l -24.63229,-67.81737 h -12.16965 c -7.41982,0 -13.06404,1.07765 -14.46117,2.7611 -3.94211,4.74994 -49.05397,130.01505 -49.05397,136.21141 0,2.43436 2.26441,3.00438 9.95394,2.50573 l 9.95395,-0.64548 z m 161.83047,-10.22003 v -30.339 l 20.24989,-32.49401 c 30.18258,-48.43256 30.28139,-48.71964 16.76888,-48.71964 -9.27016,0 -12.42886,3.45948 -31.34886,34.33386 -11.38126,18.57237 -15.7767,24.15889 -17.49571,22.23675 -1.26267,-1.41189 -7.80273,-11.62061 -14.53345,-22.68604 -19.83459,-32.60835 -21.03936,-33.88457 -31.98764,-33.88457 -6.30964,0 -9.42226,0.90768 -9.42226,2.74767 0,1.51121 10.48304,20.03115 23.29565,41.15538 l 23.29564,38.40772 v 29.79043 29.79045 h 10.58893 10.58893 z"
       style="opacity:0.998;fill:#1de4a2;fill-opacity:1;stroke-width:10.5889;stroke-linecap:round;stroke-linejoin:round" />
    <path
       transform="matrix(0.26458333,0,0,0.26458333,231.24334,106.41106)"
       id="path4456"
       d="m 250.19491,497.1096 c -3.20316,-0.48524 -5.83459,-1.5337 -5.84765,-2.32992 -0.0599,-3.65657 17.77185,-53.33343 19.14434,-53.33343 1.34389,0 21.11733,52.3054 21.11733,55.86032 0,1.41141 -24.73117,1.26986 -34.41402,-0.19697 z"
       style="opacity:0.998;fill:#e4cb1d;fill-opacity:1;stroke-width:10.5889;stroke-linecap:round;stroke-linejoin:round" />
    <path
       transform="matrix(0.26458333,0,0,0.26458333,231.24334,106.41106)"
       id="path4458"
       d="M 136.36392,903.36436 C 95.334408,901.86474 91.307796,900.7252 79.494128,887.27019 75.824711,883.09095 70.441723,874.97341 67.531934,869.23123 L 62.24141,858.79088 V 484.86086 110.93085 L 67.531934,100.4905 C 74.875516,85.99864 85.019495,75.060177 95.35512,70.48818 c 7.16245,-3.168334 37.63466,-7.932748 51.73493,-8.0889 1.82264,-0.02018 4.88447,3.256854 6.80408,7.282309 5.0023,10.489947 17.6241,23.769379 28.88394,30.388881 l 9.70717,5.70672 78.70148,0.6674 c 76.11877,0.6455 78.98365,0.52345 87.29979,-3.71913 12.82004,-6.540291 23.1952,-16.51944 30.34321,-29.185009 l 6.38356,-11.311047 16.17309,1.278642 c 29.35213,2.320572 37.16466,4.636744 48.09608,14.258949 5.51107,4.851049 12.73374,12.566097 16.05036,17.144553 l 6.0302,8.324462 v 381.47138 c 0,350.76235 -0.28092,381.89291 -3.48969,386.70761 -6.66884,10.00656 -20.91425,23.61281 -29.33599,28.01975 -8.30903,4.34798 -11.0246,4.44095 -141.89165,4.8585 -73.38128,0.23414 -150.09808,-0.18383 -170.48176,-0.92889 z m -8.47115,-372.72228 v -25.16461 l 16.41284,-1.45594 c 9.02706,-0.80076 19.99912,-2.38232 24.38235,-3.51459 9.11316,-2.35413 21.51648,-12.43462 26.02325,-21.14974 4.0322,-7.79741 4.09571,-36.14355 0.0982,-43.84003 -6.24911,-12.03163 -20.95866,-18.90696 -43.99409,-20.56313 -7.9483,-0.57146 -21.12247,-1.52216 -29.27595,-2.11268 l -14.8245,-1.07367 v 72.0195 72.0195 h 10.58893 10.58893 z m 101.11844,6.63398 6.17105,-18.53062 27.28815,-1.43086 c 15.00848,-0.78697 27.83451,-1.09321 28.50225,-0.68051 0.66776,0.41269 3.97686,9.39536 7.35359,19.96148 l 6.1395,19.21114 h 11.24945 c 9.39124,0 11.24944,-0.62521 11.24944,-3.78501 0,-2.99606 -36.36858,-106.84899 -46.32449,-132.28273 -2.13464,-5.45322 -3.08879,-5.82391 -14.99006,-5.82391 -10.95936,0 -13.15399,0.67714 -15.93102,4.91542 -5.78922,8.83547 -47.70379,125.59137 -47.70379,132.88217 0,3.49176 1.53182,4.09406 10.41245,4.09406 h 10.41244 z M 390.49822,526.27804 V 496.74941 L 412.634,460.86823 c 12.17468,-19.73465 22.76103,-38.37237 23.52523,-41.4172 1.32938,-5.29662 1.01323,-5.53599 -7.31128,-5.53599 -10.14031,0 -13.76914,3.01028 -24.97903,20.72141 -16.13187,25.48761 -22.31271,34.34102 -23.9746,34.34102 -0.94648,0 -7.67829,-9.63927 -14.95958,-21.42062 -19.33915,-31.29141 -21.63519,-33.64181 -32.86388,-33.64181 -5.13798,0 -9.34179,1.00033 -9.34179,2.22295 0,3.31349 4.94186,12.35315 26.78743,48.99974 l 19.80386,33.2215 v 28.72374 28.72372 h 10.58893 10.58893 z"
       style="opacity:0.998;fill:#e4cb1d;fill-opacity:1;stroke-width:10.5889;stroke-linecap:round;stroke-linejoin:round" />
    <path
       transform="matrix(0.26458333,0,0,0.26458333,231.24334,106.41106)"
       id="path4460"
       d="m 127.89277,459.43577 v -27.06889 l 14.95749,1.39015 c 8.22663,0.76459 18.06899,2.69022 21.87192,4.27919 8.43197,3.5231 12.92427,13.0947 11.18272,23.82664 -2.29464,14.14017 -12.31587,20.98462 -33.97313,23.20347 l -14.039,1.43834 z"
       style="opacity:0.998;fill:#d3e41d;fill-opacity:1;stroke-width:10.5889;stroke-linecap:round;stroke-linejoin:round" />
    <path
       transform="matrix(0.26458333,0,0,0.26458333,231.24334,106.41106)"
       id="path5031"
       d="M 112.93274,901.03906 C 104.12233,900.16983 94.986598,898.42723 92.631114,897.16662 85.77043,893.49489 73.424796,878.74243 67.610082,867.26766 L 62.24141,856.67309 V 484.69826 112.72343 l 6.650783,-12.47814 C 72.550124,93.382305 79.575561,84.050032 84.504276,79.506902 94.154994,70.611179 103.01624,67.86676 132.13378,64.755558 l 15.24954,-1.629408 7.93612,10.736591 c 4.36486,5.905125 11.8351,14.256443 16.60054,18.558483 16.54162,14.933116 12.93674,14.414856 100.26733,14.414856 75.0653,0 79.28264,-0.20775 87.78661,-4.32444 10.26427,-4.968849 26.76481,-21.738144 31.81933,-32.337618 3.84763,-8.068542 4.16028,-8.09682 37.55787,-3.396891 19.00861,2.675019 23.72814,5.363566 39.5078,22.506187 l 13.23309,14.376092 -1.0782,379.08367 c -0.80463,282.90493 -1.70893,380.6956 -3.56419,385.43703 -2.97331,7.59874 -17.34675,22.80105 -27.6534,29.24806 l -7.41225,4.63651 -156.71615,0.27739 c -86.19389,0.15248 -163.92467,-0.43379 -172.73508,-1.30301 z M 127.89277,531.4925 c 0,-27.76767 -2.22967,-25.12609 23.29565,-27.59931 16.81105,-1.62887 28.50553,-6.5799 37.56528,-15.90377 8.07331,-8.30868 9.77259,-15.51295 8.69454,-36.86141 -0.91624,-18.14418 -4.91364,-24.31981 -20.18865,-31.18963 -8.55521,-3.84766 -39.40439,-7.97198 -60.48519,-8.08649 l -10.05949,-0.0546 v 72.00472 72.00472 h 10.58893 10.58893 z m 101.65656,6.31301 5.63535,-16.94229 10.41707,-1.4028 c 5.72939,-0.77155 18.17739,-1.4863 27.66222,-1.58834 19.47584,-0.20945 17.32442,-2.0943 25.17099,22.05121 l 4.81751,14.82451 11.85609,0.63512 c 10.79499,0.5783 11.85608,0.24143 11.85608,-3.76396 0,-4.66593 -40.77909,-121.98936 -45.83862,-131.88001 -2.74561,-5.36724 -3.96755,-5.82391 -15.58273,-5.82391 -11.07576,0 -13.02017,0.6359 -16.04083,5.24601 -7.40221,11.2972 -47.48718,122.30291 -47.48718,131.50437 0,5.12937 0.47626,5.33477 10.94935,4.7225 l 10.94934,-0.64012 z m 160.94889,-10.86075 v -28.86193 l 13.35319,-21.43548 c 21.44616,-34.42692 33.2381,-55.43379 33.2381,-59.21232 0,-4.13305 -12.4109,-4.96075 -19.27789,-1.28565 -2.29621,1.22891 -11.34699,13.14146 -20.11282,26.47233 -8.76584,13.33089 -16.7458,24.23797 -17.73324,24.23797 -0.98746,0 -7.35056,-8.80408 -14.14022,-19.56461 -18.56718,-29.42598 -22.56927,-33.38003 -33.78561,-33.38003 -7.49857,0 -9.31066,0.73019 -9.31066,3.75176 0,2.06346 10.46633,21.36179 23.25852,42.88516 l 23.25852,39.1334 0.0371,28.06067 0.0371,28.06066 h 10.58893 10.58893 z"
       style="opacity:0.998;fill:#d3e41d;fill-opacity:1;stroke-width:10.5889;stroke-linecap:round;stroke-linejoin:round" />
    <path
       transform="matrix(0.26458333,0,0,0.26458333,231.24334,106.41106)"
       id="path5033"
       d="m 250.19491,497.1096 c -3.20316,-0.48524 -5.83974,-1.5337 -5.85909,-2.32992 -0.081,-3.33522 17.94735,-53.33343 19.231,-53.33343 1.31693,0 21.06645,52.15787 21.0498,55.59188 -0.008,1.61995 -23.8728,1.66949 -34.42171,0.0715 z"
       style="opacity:0.998;fill:#d3e41d;fill-opacity:1;stroke-width:10.5889;stroke-linecap:round;stroke-linejoin:round" />
  </g>
</svg>
