<?xml version="1.0" encoding="UTF-8" standalone="no"?>
<svg
   xmlns:dc="http://purl.org/dc/elements/1.1/"
   xmlns:cc="http://creativecommons.org/ns#"
   xmlns:rdf="http://www.w3.org/1999/02/22-rdf-syntax-ns#"
   xmlns:svg="http://www.w3.org/2000/svg"
   xmlns="http://www.w3.org/2000/svg"
   xmlns:sodipodi="http://sodipodi.sourceforge.net/DTD/sodipodi-0.dtd"
   xmlns:inkscape="http://www.inkscape.org/namespaces/inkscape"
   sodipodi:docname="Story_Books.svg"
   inkscape:version="1.0 (4035a4fb49, 2020-05-01)"
   id="svg6678"
   version="1.1"
   viewBox="0 0 177.30844 153.66729"
   height="580.78973"
   width="670.14215">
  <defs
     id="defs6672" />
  <sodipodi:namedview
     fit-margin-bottom="0"
     fit-margin-right="0"
     fit-margin-left="0"
     fit-margin-top="0"
     inkscape:window-maximized="1"
     inkscape:window-y="-9"
     inkscape:window-x="-9"
     inkscape:window-height="1001"
     inkscape:window-width="1920"
     units="px"
     inkscape:pagecheckerboard="true"
     showgrid="false"
     inkscape:document-rotation="0"
     inkscape:current-layer="layer1"
     inkscape:document-units="px"
     inkscape:cy="422.8193"
     inkscape:cx="192.4353"
     inkscape:zoom="0.34184994"
     inkscape:pageshadow="2"
     inkscape:pageopacity="0.0"
     borderopacity="1.0"
     bordercolor="#666666"
     pagecolor="#ffffff"
     id="base" />
  <metadata
     id="metadata6675">
    <rdf:RDF>
      <cc:Work
         rdf:about="">
        <dc:format>image/svg+xml</dc:format>
        <dc:type
           rdf:resource="http://purl.org/dc/dcmitype/StillImage" />
        <dc:title></dc:title>
      </cc:Work>
    </rdf:RDF>
  </metadata>
  <g
     transform="translate(-124.57592,-198.83049)"
     id="layer1"
     inkscape:groupmode="layer"
     inkscape:label="Layer 1">
    <g
       transform="matrix(0.36939241,0,0,0.36939241,118.66568,181.0997)"
       id="g7591">
      <path
         d="M 256,160 C 272,96.84 332.43,64.59 464,64 a 15.94,15.94 0 0 1 16,16 v 288 a 16,16 0 0 1 -16,16 C 336,384 286.55,409.81 256,448 225.63,410 176,384 48,384 38.12,384 32,375.95 32,366.07 V 80 A 15.94,15.94 0 0 1 48,64 c 131.57,0.59 192,32.84 208,96 z"
         style="fill:none;stroke:#000000;stroke-width:32px;stroke-linecap:round;stroke-linejoin:round"
         id="path7577" />
      <line
         x1="256"
         y1="160"
         x2="256"
         y2="448"
         style="fill:none;stroke:#000000;stroke-width:32px;stroke-linecap:round;stroke-linejoin:round"
         id="line7579" />
    </g>
    <path
       transform="scale(0.26458333)"
       id="path7593"
       d="m 752.49385,1237.9354 c -49.44323,-24.7103 -105.05201,-36.2708 -189.4106,-39.3764 l -47.53547,-1.75 V 996.50168 796.19435 l 35.83443,2.04311 c 45.89528,2.61674 91.53204,8.89256 118.57178,16.3056 48.89086,13.40362 86.43753,40.41064 102.99644,74.08453 l 8.85911,18.01574 -0.76286,172.59037 -0.76286,172.5903 z"
       style="opacity:0.998;fill:#ff1a1a;fill-opacity:1;stroke-width:14.6263;stroke-linecap:round;stroke-linejoin:round" />
    <path
       transform="scale(0.26458333)"
       id="path7595"
       d="m 829.19378,1078.5024 0.81947,-174.78433 10.01224,-18.46597 c 29.27833,-53.99914 93.65052,-79.26385 221.81461,-87.05751 l 32.9092,-2.0012 v 200.75666 200.75665 h -28.9427 c -85.03274,0 -171.81421,18.0893 -217.58495,45.3548 -9.4408,5.6238 -17.76859,10.2252 -18.50621,10.2252 -0.73762,0 -0.97237,-78.653 -0.52166,-174.7843 z"
       style="opacity:0.998;fill:#ffe21a;fill-opacity:1;stroke-width:14.6263;stroke-linecap:round;stroke-linejoin:round" />
  </g>
</svg>
