<?xml version="1.0" encoding="UTF-8" standalone="no"?>
<svg
   xmlns:dc="http://purl.org/dc/elements/1.1/"
   xmlns:cc="http://creativecommons.org/ns#"
   xmlns:rdf="http://www.w3.org/1999/02/22-rdf-syntax-ns#"
   xmlns:svg="http://www.w3.org/2000/svg"
   xmlns="http://www.w3.org/2000/svg"
   xmlns:sodipodi="http://sodipodi.sourceforge.net/DTD/sodipodi-0.dtd"
   xmlns:inkscape="http://www.inkscape.org/namespaces/inkscape"
   sodipodi:docname="Video_Streaming.svg"
   inkscape:version="1.0 (4035a4fb49, 2020-05-01)"
   id="svg4468"
   version="1.1"
   viewBox="0 0 161.37592 97.367138"
   height="368.00177"
   width="609.92474">
  <defs
     id="defs4462" />
  <sodipodi:namedview
     inkscape:window-maximized="1"
     inkscape:window-y="-9"
     inkscape:window-x="-9"
     inkscape:window-height="1001"
     inkscape:window-width="1920"
     fit-margin-bottom="0"
     fit-margin-right="0"
     fit-margin-left="0"
     fit-margin-top="0"
     inkscape:pagecheckerboard="true"
     units="px"
     showgrid="false"
     inkscape:document-rotation="0"
     inkscape:current-layer="layer1"
     inkscape:document-units="px"
     inkscape:cy="166.55903"
     inkscape:cx="29.122451"
     inkscape:zoom="0.34184994"
     inkscape:pageshadow="2"
     inkscape:pageopacity="0.0"
     borderopacity="1.0"
     bordercolor="#666666"
     pagecolor="#ffffff"
     id="base" />
  <metadata
     id="metadata4465">
    <rdf:RDF>
      <cc:Work
         rdf:about="">
        <dc:format>image/svg+xml</dc:format>
        <dc:type
           rdf:resource="http://purl.org/dc/dcmitype/StillImage" />
        <dc:title></dc:title>
      </cc:Work>
    </rdf:RDF>
  </metadata>
  <g
     transform="translate(-151.5323,-275.92039)"
     id="layer1"
     inkscape:groupmode="layer"
     inkscape:label="Layer 1">
    <g
       id="g6630"
       transform="matrix(0.26458333,0,0,0.26458333,215.54155,256.56223)"
       style="fill:#000000;fill-opacity:1">
      <path
         id="path6626"
         d="M 224,432 H 144 V 80 h 80 z"
         style="fill:#000000;fill-opacity:1" />
      <path
         id="path6628"
         d="M 368,432 H 288 V 80 h 80 z"
         style="fill:#000000;fill-opacity:1" />
    </g>
    <g
       transform="translate(-0.40801048,-0.4655836)"
       id="g6641">
      <path
         id="path6613"
         d="m 161.71931,373.75311 a 9.3583125,9.3583125 0 0 1 -4.63021,-1.23561 c -3.175,-1.79916 -5.14879,-5.29166 -5.14879,-9.08314 v -76.72917 c 0,-3.80206 1.97379,-7.28398 5.14879,-9.08314 a 9.2948125,9.2948125 0 0 1 9.46415,0.11906 l 65.57698,39.25358 a 9.525,9.525 0 0 1 0,16.13959 l -65.58756,39.26416 a 9.3927084,9.3927084 0 0 1 -4.82336,1.35467 z"
         style="stroke-width:0.264583" />
      <path
         id="path6632"
         d="m 254.04956,324.246 v -46.05152 h 10.06167 10.06168 v 46.05152 46.05151 h -10.06168 -10.06167 z"
         style="opacity:0.998;fill:#000000;fill-opacity:1;stroke-width:3.86988;stroke-linecap:round;stroke-linejoin:round" />
      <path
         id="path6634"
         d="m 254.04956,324.246 v -46.05152 h 10.06167 10.06168 v 46.05152 46.05151 h -10.06168 -10.06167 z"
         style="opacity:0.998;fill:#ff1616;fill-opacity:1;stroke:none;stroke-width:3.86988;stroke-linecap:round;stroke-linejoin:round;stroke-opacity:1" />
    </g>
    <path
       style="opacity:0.998;fill:#ff1616;fill-opacity:1;stroke:none;stroke-width:3.86988;stroke-linecap:round;stroke-linejoin:round;stroke-opacity:1"
       d="m 291.97435,324.246 v -46.05152 h 10.44866 10.44866 v 46.05152 46.05151 h -10.44866 -10.44866 z"
       id="path6636" />
  </g>
</svg>
